<?xml version="1.0" standalone="no"?>
<!DOCTYPE svg PUBLIC "-//W3C//DTD SVG 20010904//EN"
 "http://www.w3.org/TR/2001/REC-SVG-20010904/DTD/svg10.dtd">
<svg version="1.0" xmlns="http://www.w3.org/2000/svg"
 width="960.000000pt" height="960.000000pt" viewBox="0 0 960.000000 960.000000"
 preserveAspectRatio="xMidYMid meet">
<metadata>
Created by potrace 1.16, written by Peter Selinger 2001-2019
</metadata>
<g transform="translate(0.000000,960.000000) scale(0.100000,-0.100000)"
fill="#000000" stroke="none">
<path d="M3104 7471 c-29 -13 -284 -261 -852 -829 -805 -803 -811 -810 -827
-867 -14 -48 -15 -67 -6 -113 6 -30 19 -68 29 -83 16 -25 260 -278 1647 -1704
702 -722 783 -803 815 -820 18 -9 56 -19 86 -22 101 -11 123 4 379 256 127
124 278 273 338 331 l107 105 316 -323 c197 -201 332 -331 358 -344 56 -29
146 -29 206 0 33 16 276 256 935 923 1625 1646 1521 1538 1541 1606 21 72 9
148 -33 205 -16 20 -208 227 -428 460 -397 419 -531 561 -904 957 -106 113
-207 216 -225 229 -17 12 -56 27 -86 34 -46 9 -64 8 -113 -6 -57 -17 -68 -27
-515 -467 -325 -320 -465 -465 -484 -501 -34 -62 -38 -150 -9 -213 12 -27 117
-137 334 -349 175 -170 317 -312 317 -316 0 -3 -273 -276 -606 -605 l-606
-599 -132 135 c-892 909 -1080 1101 -1098 1124 l-21 28 326 321 c352 346 347
340 347 446 0 96 -16 115 -468 560 -232 228 -439 424 -460 435 -53 28 -155 31
-208 6z m546 -1002 c0 -4 -141 -145 -314 -314 -188 -183 -322 -321 -332 -343
-10 -20 -20 -63 -22 -95 -9 -115 -42 -77 764 -896 l733 -746 -227 -228 c-125
-125 -230 -226 -233 -225 -6 3 -696 712 -1468 1508 -157 162 -347 357 -420
433 l-135 138 604 604 603 604 224 -216 c123 -119 223 -219 223 -224z m3490
-314 c482 -515 460 -491 460 -501 0 -4 -136 -146 -303 -314 -167 -168 -469
-474 -672 -680 -204 -206 -518 -524 -699 -707 l-329 -331 -218 221 -218 222
718 720 c770 772 741 740 741 840 0 97 -1 98 -349 443 l-326 322 252 250 253
249 163 -172 c89 -95 326 -347 527 -562z"/>
<path d="M4419 6241 c-2 -6 -39 -48 -81 -94 -42 -47 -74 -87 -71 -91 4 -3 156
-6 340 -6 l333 0 38 -34 c32 -30 37 -41 37 -78 0 -44 -22 -84 -60 -110 -14 -9
-75 -14 -215 -18 l-195 -5 -3 -92 -3 -93 158 0 c87 0 176 -5 197 -10 78 -18
125 -71 132 -151 5 -46 2 -59 -18 -89 -13 -19 -39 -45 -57 -57 -34 -23 -37
-23 -367 -23 -184 0 -334 -3 -334 -8 0 -4 39 -47 88 -95 l87 -87 316 0 315 0
52 26 c117 58 169 180 151 354 -9 91 -29 139 -77 188 l-35 35 24 18 c13 10 27
19 31 19 3 0 17 17 30 38 20 33 23 49 23 142 0 95 -3 110 -29 163 -32 66 -77
104 -165 139 -52 21 -75 22 -347 26 -199 3 -293 0 -295 -7z"/>
<path d="M2275 2693 c4 -10 51 -139 105 -288 54 -148 101 -278 105 -288 6 -14
16 -17 44 -15 l36 3 85 232 c46 128 87 229 91 225 3 -4 22 -52 42 -107 19 -55
56 -157 82 -227 l47 -128 33 0 c19 0 37 5 40 10 9 15 215 582 215 593 0 4 -21
7 -46 5 l-46 -3 -77 -207 c-42 -114 -79 -209 -82 -212 -3 -4 -41 91 -84 209
l-78 216 -50 -3 -50 -3 -76 -207 c-42 -114 -79 -209 -82 -212 -3 -4 -41 91
-84 209 l-78 215 -50 0 c-43 0 -48 -2 -42 -17z"/>
<path d="M3294 2700 c-34 -13 -64 -59 -64 -96 0 -33 1 -34 40 -34 33 0 40 3
40 20 0 10 9 24 19 30 30 15 353 13 375 -3 14 -10 16 -25 14 -82 l-3 -70 -187
-3 -188 -2 0 -45 0 -45 199 0 c172 0 200 -2 205 -16 12 -31 6 -141 -8 -153 -9
-8 -75 -11 -217 -9 -193 3 -203 4 -209 23 -4 15 -13 20 -43 20 -35 0 -37 -1
-37 -33 0 -24 9 -42 29 -63 l29 -29 239 0 c257 0 264 2 292 57 18 34 14 198
-5 235 -13 24 -16 57 -15 134 2 113 -7 141 -55 162 -29 14 -417 16 -450 2z"/>
<path d="M3980 2665 l0 -45 239 -2 239 -3 -239 -200 -238 -200 -1 -58 0 -57
303 2 302 3 3 43 3 42 -240 0 c-133 0 -241 3 -241 8 0 4 108 97 240 207 l240
200 0 53 0 52 -305 0 -305 0 0 -45z"/>
<path d="M4728 2694 c-15 -8 -32 -23 -38 -34 -7 -13 -11 -108 -11 -252 0 -325
-16 -309 314 -306 l229 3 29 33 29 32 0 238 c-1 322 19 302 -302 302 -177 -1
-229 -4 -250 -16z m460 -286 l-3 -213 -205 0 -205 0 -3 213 -2 212 210 0 210
0 -2 -212z"/>
<path d="M5380 2404 l0 -305 43 3 42 3 5 238 5 239 201 -239 200 -238 52 0
c29 0 52 3 52 8 0 4 0 140 0 302 l0 295 -45 0 -46 0 3 -235 c2 -129 0 -235 -3
-235 -4 0 -96 106 -205 235 l-197 235 -54 0 -53 0 0 -306z"/>
<path d="M6082 2408 l3 -303 278 -3 277 -2 0 45 0 45 -232 2 -233 3 -3 83 -3
82 191 0 190 0 0 45 0 45 -187 2 -188 3 -3 83 -3 82 236 0 235 0 0 45 0 45
-280 0 -280 0 2 -302z"/>
<path d="M6767 2690 c-37 -29 -50 -80 -45 -174 8 -149 22 -156 307 -156 l212
0 -3 -82 -3 -83 -205 0 -204 0 -6 25 c-5 22 -12 25 -54 28 l-49 3 7 -43 c4
-28 17 -53 37 -73 l29 -30 213 -3 c312 -5 327 3 327 170 0 108 -12 145 -52
166 -15 8 -93 13 -238 15 l-215 2 -3 83 -3 82 211 0 210 0 0 -25 c0 -23 4 -25
45 -25 43 0 45 1 45 30 0 16 -5 41 -12 55 -23 51 -47 55 -296 55 -215 0 -231
-1 -255 -20z"/>
</g>
</svg>
